<?xml version="1.0"?><svg width="640" height="480" xmlns="http://www.w3.org/2000/svg">
 <title>grey divider no background</title>
 <metadata id="metadata15">image/svg+xml</metadata>
 <g>
  <title>Layer 1</title>
  <path fill="#3f3f3f" fill-rule="evenodd" stroke-width="1px" d="m309.27475,260.725677c3.203156,-2.243256 2.200104,-5.53714 -0.537872,-6.487427c-4.830078,-1.736008 -10.109467,1.887207 -7.68988,5.492035c2.414764,3.710571 8.459656,6.304504 16.688965,7.046234c17.853241,1.560883 53.166687,-8.056519 75.562134,-10.999466c16.636719,-2.186188 26.799438,1.098892 32.283142,4.737228c-11.27063,-3.950623 -21.542969,-2.576599 -32.114655,-1.606628c-24.256226,2.225586 -49.346191,11.674805 -75.932526,10.188507c-12.412476,-0.917603 -21.109467,-7.016937 -20.394287,-11.799683c0.063538,-0.425018 0.201385,-0.839661 0.417603,-1.239349c1.633911,-2.834412 4.50473,-3.996918 7.047974,-4.341721c6.913208,-0.937302 13.761505,5.297867 4.669403,9.010269z" id="path2383"/>
  <path fill="#3f3f3f" fill-rule="evenodd" stroke-width="1px" d="m291.69101,262.66452c-3.15332,2.589142 -2.165833,6.390991 0.529449,7.487823c4.754852,2.003723 9.952118,-2.178253 7.57019,-6.338959c-2.377075,-4.282776 -8.327972,-7.276703 -16.429138,-8.132767c-17.575409,-1.801636 -52.33905,9.298843 -74.385941,12.695633c-16.37767,2.523315 -26.382233,-1.268341 -31.780502,-5.467773c11.095154,4.559875 21.207489,2.973969 31.614594,1.854401c23.878754,-2.568756 48.578125,-13.475174 74.75058,-11.759644c12.219238,1.059113 20.780853,8.09903 20.076843,13.619293c-0.062531,0.490601 -0.198303,0.969147 -0.411133,1.43045c-1.608459,3.271515 -4.434601,4.613251 -6.938232,5.011261c-6.805603,1.081818 -13.547272,-6.114807 -4.59671,-10.399719z" id="path2479"/>
 </g>
</svg>